<?xml version="1.0" encoding="utf-8"?>
<!-- Generator: Adobe Illustrator 19.2.1, SVG Export Plug-In . SVG Version: 6.00 Build 0)  -->
<svg version="1.1" id="Layer_2" xmlns="http://www.w3.org/2000/svg" xmlns:xlink="http://www.w3.org/1999/xlink" x="0px" y="0px"
	 viewBox="0 0 80.3 80.3" style="enable-background:new 0 0 80.3 80.3;" xml:space="preserve">
<style type="text/css">
	.st0{fill:#EB6A5C;}
	.st1{fill:#552F2F;}
	.st2{fill:#2384AB;}
	.st3{fill:#FFFFFF;}
	.st4{fill:#0C2C48;}
	.st5{fill:#F6A09C;}
	.st6{fill:#61C3AF;}
	.st7{fill:#2F4555;}
	.st8{fill:#55AB99;}
	.st9{fill:#ED6B5A;}
	.st10{fill:#2484AD;}
	.st11{fill:#FCA886;}
	.st12{fill:#F1CC4B;}
	.st13{fill:#6EB9E0;}
	.st14{fill:#50646F;}
	.st15{fill:#EDC84A;}
	.st16{fill:#E7543A;}
	.st17{fill:#F38D80;}
	.st18{fill:#F2F2F2;}
	.st19{fill:#81CAFF;}
	.st20{clip-path:url(#SVGID_4_);fill:#55AB99;}
	.st21{fill:#BABFC5;}
	.st22{fill:#BBC2C7;}
</style>
<g>
	<circle class="st14" cx="40.2" cy="40.2" r="40.2"/>
	<g>
		<g>
			<path class="st19" d="M45.7,49.8l23-22c1.4-1.4,2.6-4.5,1.3-5.7c-1.2-1.2-4.4,0-5.7,1.3l-22,23L45.7,49.8z"/>
			<g>
				<g>
					<path class="st19" d="M56.2,32.3c-0.9-0.3-18.3-5.9-18.3-5.9l-4.8,4l16.3,9.1L56.2,32.3z"/>
					<path class="st19" d="M45.6,33.3c-0.8,0.8-2.3,0.8-3.2-0.2l0,0c-0.9-0.9-1-2.4-0.2-3.2l3.7-3.7c0.8-0.8,2.3-0.8,3.2,0.2l0,0
						c0.9,0.9,1,2.4,0.2,3.2L45.6,33.3z"/>
				</g>
				<g>
					<path class="st19" d="M59.9,36.1c0.3,0.9,5.9,18.3,5.9,18.3l-4,4.8l-9.1-16.3L59.9,36.1z"/>
					<path class="st19" d="M58.9,46.6c-0.8,0.8-0.8,2.3,0.2,3.2l0,0c0.9,0.9,2.4,1,3.2,0.2l3.7-3.7c0.8-0.8,0.8-2.3-0.2-3.2l0,0
						c-0.9-0.9-2.4-1-3.2-0.2L58.9,46.6z"/>
				</g>
			</g>
			<path class="st19" d="M39.5,53.6c-0.2,0.2-0.6,0.2-0.8,0l0,0c-0.2-0.2-0.3-0.6,0-0.8l6.8-6.8c0.2-0.2,0.6-0.2,0.8,0l0,0
				c0.2,0.2,0.3,0.6,0,0.8L39.5,53.6z"/>
			<g>
				<path class="st19" d="M46.2,45.6c-0.4,0.1-9.1,0.7-9.1,0.7l-3.5,3.3L41,51L46.2,45.6z"/>
				<path class="st19" d="M46.3,46.3c-0.1,0.4-0.7,9.1-0.7,9.1l-3.3,3.5l-1.4-7.2L46.3,46.3z"/>
			</g>
		</g>
		<path class="st3" d="M37.5,52.6c-6.4,4.5-15.4,5.9-22.6,2.1C10.2,52.2,6.4,47,4.5,42.1C5.8,48.3,9.7,53.9,15.6,57
			c8.5,4.6,18.4,2.5,24-4.4C38.5,52.3,38.5,52.8,37.5,52.6z"/>
	</g>
</g>
</svg>
